<svg xmlns="http://www.w3.org/2000/svg" xmlns:xlink="http://www.w3.org/1999/xlink" version="1.1" x="0px" y="0px" viewBox="0 0 100 125" enable-background="new 0 0 100 100" xml:space="preserve"><g><g><path fill="#000000" d="M50.4,80.5c-0.1,0-0.3,0-0.4,0c-2.3,0.1-4.5-0.5-6.9-1.7c-2.3-1.1-4.4-2.7-6.8-4.8    c-3.5-3.1-6.7-6.7-9.7-10.9c-0.6-0.8-0.6-1.9,0-2.7c3.6-5,7.4-9,11.4-12.3c2.1-1.7,4.1-2.9,6.1-3.9c2-0.9,4-1.3,5.9-1.2    c2.3-0.1,4.5,0.5,6.9,1.7c2.3,1.2,4.4,2.7,6.8,4.8c3.5,3.1,6.7,6.7,9.7,10.9c0.6,0.8,0.6,1.9,0,2.7c-3.6,5-7.4,9-11.4,12.3    c-2.1,1.7-4.1,3-6.1,3.9C54.1,80,52.3,80.5,50.4,80.5z M50,76.5L50,76.5c1.5,0.1,2.9-0.2,4.3-0.9c1.7-0.8,3.5-1.9,5.3-3.3    c3.5-2.8,6.7-6.3,9.9-10.5c-2.7-3.5-5.4-6.6-8.5-9.3c-2.1-1.9-4-3.2-5.9-4.2c-1.8-0.9-3.4-1.3-5-1.3L50,47l-0.1,0    c-1.4-0.1-2.8,0.2-4.2,0.9c-1.7,0.8-3.5,1.9-5.3,3.3c-3.5,2.8-6.7,6.3-9.9,10.5c2.7,3.5,5.4,6.6,8.5,9.3c2.1,1.9,4,3.2,5.9,4.2    C46.7,76.1,48.3,76.6,50,76.5L50,76.5z"/></g><g><path fill="#000000" d="M85,82.3H15c-0.7,0-1.4-0.4-1.7-1c-0.4-0.6-0.4-1.4,0-2l35-60.5c0.4-0.6,1-1,1.7-1s1.4,0.4,1.7,1l35,60.5    c0.4,0.6,0.4,1.4,0,2C86.3,81.9,85.7,82.3,85,82.3z M18.5,78.3h63L50,23.7L18.5,78.3z"/></g></g><text x="0" y="115" fill="#000000" font-size="5px" font-weight="bold" font-family="'Helvetica Neue', Helvetica, Arial-Unicode, Arial, Sans-serif">Created by Xènia Martínez Ribot</text><text x="0" y="120" fill="#000000" font-size="5px" font-weight="bold" font-family="'Helvetica Neue', Helvetica, Arial-Unicode, Arial, Sans-serif">from the Noun Project</text></svg>